<?xml version="1.0" encoding="UTF-8" standalone="no"?>
<!DOCTYPE svg PUBLIC "-//W3C//DTD SVG 1.1//EN" "http://www.w3.org/Graphics/SVG/1.1/DTD/svg11.dtd">
<svg width="100%" height="100%" viewBox="0 0 10756 3906" version="1.1" xmlns="http://www.w3.org/2000/svg" xmlns:xlink="http://www.w3.org/1999/xlink" xml:space="preserve" xmlns:serif="http://www.serif.com/" style="fill-rule:evenodd;clip-rule:evenodd;stroke-linejoin:round;stroke-miterlimit:2;">
    <style>
        svg {
            filter: drop-shadow(0 0 3px #E579EB);
        }
    </style>
    <g transform="matrix(1,0,0,1,-21802.5,0)">
        <g id="_7.-Mariposa-y-texto-en-horizontal-sobre-fondo-claro" serif:id="7. Mariposa y texto en horizontal sobre fondo claro" transform="matrix(2.7537,0,0,1,-25827.1,0)">
            <g id="Texto">
                <g transform="matrix(4.35988,0,0,12.0062,17871.6,-7513.57)">
                    <g>
                        <g id="Letra-E" serif:id="Letra E" transform="matrix(0,463.987,463.987,0,703.96,657.993)">
                            <path d="M0.269,-0.078L0.269,0.078L0.237,0.078L0.237,-0.078L0.269,-0.078ZM0.322,-0.078L0.438,-0.078L0.438,0.078L0.406,0.078L0.406,-0.046L0.353,-0.046L0.353,0.078L0.322,0.078L0.322,-0.078Z" style="fill:url(#_Linear1);fill-rule:nonzero;"/>
                        </g>
                        <g id="Letra-D" serif:id="Letra D" transform="matrix(0,463.987,463.987,0,611.396,657.993)">
                            <path d="M0.237,-0.094L0.269,-0.094L0.269,-0.009C0.269,0.005 0.272,0.017 0.279,0.027C0.286,0.038 0.294,0.045 0.305,0.049C0.315,0.054 0.326,0.056 0.338,0.055C0.349,0.055 0.36,0.053 0.371,0.048C0.381,0.043 0.389,0.036 0.396,0.026C0.403,0.016 0.406,0.004 0.406,-0.009L0.406,-0.062L0.322,-0.062L0.322,-0.094L0.438,-0.094L0.438,-0.006C0.438,0.009 0.436,0.022 0.431,0.034C0.427,0.046 0.42,0.056 0.413,0.063C0.405,0.071 0.396,0.077 0.386,0.083C0.376,0.088 0.365,0.091 0.354,0.092C0.343,0.093 0.332,0.093 0.321,0.092C0.31,0.091 0.299,0.087 0.289,0.082C0.279,0.076 0.27,0.07 0.262,0.062C0.255,0.054 0.248,0.045 0.244,0.033C0.239,0.021 0.237,0.008 0.237,-0.006L0.237,-0.094Z" style="fill:url(#_Linear2);fill-rule:nonzero;"/>
                        </g>
                        <g id="Letra-O" serif:id="Letra O" transform="matrix(0,463.987,463.987,0,505.598,657.993)">
                            <path d="M0.246,-0.053C0.256,-0.069 0.268,-0.082 0.285,-0.092C0.301,-0.101 0.318,-0.106 0.338,-0.106C0.357,-0.106 0.374,-0.101 0.391,-0.092C0.407,-0.082 0.42,-0.069 0.429,-0.053C0.439,-0.037 0.443,-0.019 0.443,0C0.443,0.019 0.439,0.037 0.429,0.053C0.42,0.069 0.407,0.082 0.391,0.092C0.374,0.101 0.357,0.106 0.338,0.106C0.323,0.106 0.309,0.103 0.296,0.097C0.283,0.092 0.272,0.084 0.263,0.075C0.253,0.065 0.246,0.054 0.24,0.041C0.235,0.028 0.232,0.014 0.232,0C0.232,-0.019 0.237,-0.037 0.246,-0.053ZM0.389,-0.051C0.375,-0.066 0.358,-0.073 0.338,-0.073C0.317,-0.073 0.3,-0.066 0.286,-0.051C0.272,-0.037 0.265,-0.02 0.265,0C0.265,0.02 0.272,0.037 0.286,0.051C0.3,0.066 0.317,0.073 0.338,0.073C0.358,0.073 0.375,0.066 0.389,0.051C0.403,0.037 0.41,0.02 0.41,0C0.41,-0.02 0.403,-0.037 0.389,-0.051Z" style="fill:url(#_Linear3);fill-rule:nonzero;"/>
                        </g>
                        <g id="Letra-K" serif:id="Letra K" transform="matrix(0,463.987,463.987,0,415.751,657.993)">
                            <path d="M0.237,0.027L0.315,-0.053L0.237,-0.053L0.237,-0.084L0.438,-0.084L0.438,-0.053L0.359,-0.053C0.332,-0.025 0.291,0.017 0.237,0.073L0.237,0.027ZM0.367,-0.015L0.438,0.043L0.438,0.084L0.367,0.026L0.367,-0.015Z" style="fill:url(#_Linear4);fill-rule:nonzero;"/>
                        </g>
                        <g id="Letra-O--1-" serif:id="Letra O (1)" transform="matrix(0,463.987,463.987,0,292.358,657.993)">
                            <path d="M0.171,-0.074C0.184,-0.097 0.202,-0.114 0.224,-0.128C0.247,-0.141 0.272,-0.147 0.298,-0.147C0.325,-0.147 0.349,-0.141 0.372,-0.128C0.394,-0.114 0.412,-0.097 0.426,-0.074C0.439,-0.051 0.445,-0.027 0.445,-0C0.445,0.027 0.439,0.051 0.426,0.074C0.412,0.096 0.394,0.114 0.372,0.127C0.349,0.141 0.325,0.147 0.298,0.147C0.278,0.147 0.259,0.143 0.241,0.136C0.223,0.128 0.207,0.117 0.194,0.104C0.181,0.091 0.17,0.075 0.163,0.057C0.155,0.039 0.151,0.02 0.151,-0C0.151,-0.027 0.158,-0.051 0.171,-0.074ZM0.37,-0.072C0.35,-0.091 0.326,-0.101 0.298,-0.101C0.27,-0.101 0.246,-0.091 0.227,-0.072C0.207,-0.052 0.197,-0.028 0.197,-0C0.197,0.028 0.207,0.052 0.227,0.072C0.246,0.091 0.27,0.101 0.298,0.101C0.326,0.101 0.35,0.091 0.37,0.072C0.389,0.052 0.399,0.028 0.399,-0C0.399,-0.028 0.389,-0.052 0.37,-0.072Z" style="fill:url(#_Linear5);fill-rule:nonzero;"/>
                        </g>
                        <g id="Letra-I" serif:id="Letra I" transform="matrix(463.987,0,0,-463.987,56.8976,796.344)">
                            <rect x="0.276" y="-0.14" width="0.044" height="0.28" style="fill:url(#_Linear6);"/>
                        </g>
                    </g>
                    <g>
                        <g id="Letra-E1" serif:id="Letra E" transform="matrix(0,463.987,463.987,0,703.96,657.993)">
                            <path d="M0.269,-0.078L0.269,0.078L0.237,0.078L0.237,-0.078L0.269,-0.078ZM0.322,-0.078L0.438,-0.078L0.438,0.078L0.406,0.078L0.406,-0.046L0.353,-0.046L0.353,0.078L0.322,0.078L0.322,-0.078Z" style="fill:url(#_Linear7);fill-rule:nonzero;"/>
                        </g>
                        <g id="Letra-D1" serif:id="Letra D" transform="matrix(0,463.987,463.987,0,611.396,657.993)">
                            <path d="M0.237,-0.094L0.269,-0.094L0.269,-0.009C0.269,0.005 0.272,0.017 0.279,0.027C0.286,0.038 0.294,0.045 0.305,0.049C0.315,0.054 0.326,0.056 0.338,0.055C0.349,0.055 0.36,0.053 0.371,0.048C0.381,0.043 0.389,0.036 0.396,0.026C0.403,0.016 0.406,0.004 0.406,-0.009L0.406,-0.062L0.322,-0.062L0.322,-0.094L0.438,-0.094L0.438,-0.006C0.438,0.009 0.436,0.022 0.431,0.034C0.427,0.046 0.42,0.056 0.413,0.063C0.405,0.071 0.396,0.077 0.386,0.083C0.376,0.088 0.365,0.091 0.354,0.092C0.343,0.093 0.332,0.093 0.321,0.092C0.31,0.091 0.299,0.087 0.289,0.082C0.279,0.076 0.27,0.07 0.262,0.062C0.255,0.054 0.248,0.045 0.244,0.033C0.239,0.021 0.237,0.008 0.237,-0.006L0.237,-0.094Z" style="fill:url(#_Linear8);fill-rule:nonzero;"/>
                        </g>
                        <g id="Letra-O1" serif:id="Letra O" transform="matrix(0,463.987,463.987,0,505.598,657.993)">
                            <path d="M0.246,-0.053C0.256,-0.069 0.268,-0.082 0.285,-0.092C0.301,-0.101 0.318,-0.106 0.338,-0.106C0.357,-0.106 0.374,-0.101 0.391,-0.092C0.407,-0.082 0.42,-0.069 0.429,-0.053C0.439,-0.037 0.443,-0.019 0.443,0C0.443,0.019 0.439,0.037 0.429,0.053C0.42,0.069 0.407,0.082 0.391,0.092C0.374,0.101 0.357,0.106 0.338,0.106C0.323,0.106 0.309,0.103 0.296,0.097C0.283,0.092 0.272,0.084 0.263,0.075C0.253,0.065 0.246,0.054 0.24,0.041C0.235,0.028 0.232,0.014 0.232,0C0.232,-0.019 0.237,-0.037 0.246,-0.053ZM0.389,-0.051C0.375,-0.066 0.358,-0.073 0.338,-0.073C0.317,-0.073 0.3,-0.066 0.286,-0.051C0.272,-0.037 0.265,-0.02 0.265,0C0.265,0.02 0.272,0.037 0.286,0.051C0.3,0.066 0.317,0.073 0.338,0.073C0.358,0.073 0.375,0.066 0.389,0.051C0.403,0.037 0.41,0.02 0.41,0C0.41,-0.02 0.403,-0.037 0.389,-0.051Z" style="fill:url(#_Linear9);fill-rule:nonzero;"/>
                        </g>
                        <g id="Letra-K1" serif:id="Letra K" transform="matrix(0,463.987,463.987,0,415.751,657.993)">
                            <path d="M0.237,0.027L0.315,-0.053L0.237,-0.053L0.237,-0.084L0.438,-0.084L0.438,-0.053L0.359,-0.053C0.332,-0.025 0.291,0.017 0.237,0.073L0.237,0.027ZM0.367,-0.015L0.438,0.043L0.438,0.084L0.367,0.026L0.367,-0.015Z" style="fill:url(#_Linear10);fill-rule:nonzero;"/>
                        </g>
                        <g id="Letra-O--1-1" serif:id="Letra O (1)" transform="matrix(0,463.987,463.987,0,292.358,657.993)">
                            <path d="M0.171,-0.074C0.184,-0.097 0.202,-0.114 0.224,-0.128C0.247,-0.141 0.272,-0.147 0.298,-0.147C0.325,-0.147 0.349,-0.141 0.372,-0.128C0.394,-0.114 0.412,-0.097 0.426,-0.074C0.439,-0.051 0.445,-0.027 0.445,-0C0.445,0.027 0.439,0.051 0.426,0.074C0.412,0.096 0.394,0.114 0.372,0.127C0.349,0.141 0.325,0.147 0.298,0.147C0.278,0.147 0.259,0.143 0.241,0.136C0.223,0.128 0.207,0.117 0.194,0.104C0.181,0.091 0.17,0.075 0.163,0.057C0.155,0.039 0.151,0.02 0.151,-0C0.151,-0.027 0.158,-0.051 0.171,-0.074ZM0.37,-0.072C0.35,-0.091 0.326,-0.101 0.298,-0.101C0.27,-0.101 0.246,-0.091 0.227,-0.072C0.207,-0.052 0.197,-0.028 0.197,-0C0.197,0.028 0.207,0.052 0.227,0.072C0.246,0.091 0.27,0.101 0.298,0.101C0.326,0.101 0.35,0.091 0.37,0.072C0.389,0.052 0.399,0.028 0.399,-0C0.399,-0.028 0.389,-0.052 0.37,-0.072Z" style="fill:url(#_Linear11);fill-rule:nonzero;"/>
                        </g>
                        <g id="Letra-I1" serif:id="Letra I" transform="matrix(463.987,0,0,-463.987,56.8976,796.344)">
                            <rect x="0.276" y="-0.14" width="0.044" height="0.28" style="fill:url(#_Linear12);"/>
                        </g>
                    </g>
                </g>
            </g>
            <g id="Mariposa">
                <g transform="matrix(1.61815,0,0,4.45578,17077.3,-18.1267)">
                    <g>
                        <g id="Ala-derecha" serif:id="Ala derecha">
                            <g transform="matrix(-211.518,547.818,547.818,211.518,757.561,306.907)">
                                <path d="M0.753,-0.037L0.556,0.037L0.534,0.029L0.753,-0.037Z" style="fill:url(#_Linear13);fill-rule:nonzero;"/>
                            </g>
                            <g transform="matrix(-211.518,547.818,547.818,211.518,781.171,316.023)">
                                <path d="M0.276,0.015L0.367,-0.056L0.279,0.025L0.142,0.056L0.142,0.046L0.276,0.015Z" style="fill:url(#_Linear14);fill-rule:nonzero;"/>
                            </g>
                            <g transform="matrix(-211.518,547.818,547.818,211.518,810.276,327.261)">
                                <path d="M0.131,-0.005L0.131,0.005L0.113,-0.001L0.131,-0.005Z" style="fill:url(#_Linear15);fill-rule:nonzero;"/>
                            </g>
                            <g transform="matrix(-211.518,547.818,547.818,211.518,684.249,278.601)">
                                <path d="M0.165,-0.077L0.167,-0.079L0.431,-0.217L0.434,-0.218L0.436,-0.217L0.436,-0.217L0.437,-0.217L0.437,-0.217L0.649,-0.175L0.651,-0.174L0.775,-0.102L0.777,-0.094L0.718,0.084L0.714,0.088L0.49,0.158L0.483,0.157L0.397,0.074L0.265,0.179L0.263,0.18L0.088,0.218L0.081,0.214L0.026,0.095L0.027,0.088L0.165,-0.077ZM0.156,-0.046L0.039,0.093L0.086,0.194L0.137,0.019C0.134,0.017 0.133,0.013 0.133,0.009C0.133,0.002 0.137,-0.004 0.144,-0.005L0.156,-0.046ZM0.427,-0.2L0.175,-0.069L0.156,-0.003C0.159,-0.001 0.162,0.002 0.162,0.006L0.221,0.022C0.224,0.019 0.228,0.017 0.233,0.017C0.235,0.017 0.236,0.017 0.237,0.017L0.286,-0.043C0.285,-0.045 0.285,-0.048 0.285,-0.05C0.285,-0.06 0.292,-0.067 0.302,-0.067C0.303,-0.067 0.304,-0.067 0.306,-0.067L0.348,-0.119C0.346,-0.122 0.345,-0.125 0.345,-0.129C0.345,-0.14 0.354,-0.149 0.365,-0.149C0.376,-0.149 0.385,-0.14 0.385,-0.129C0.385,-0.118 0.376,-0.109 0.365,-0.109C0.362,-0.109 0.36,-0.109 0.357,-0.11L0.316,-0.06C0.318,-0.057 0.319,-0.054 0.319,-0.05C0.319,-0.043 0.314,-0.037 0.308,-0.034L0.281,0.1C0.287,0.103 0.291,0.11 0.291,0.117C0.291,0.128 0.282,0.137 0.271,0.137C0.259,0.137 0.25,0.128 0.25,0.117C0.25,0.106 0.259,0.098 0.269,0.097L0.294,-0.033L0.247,0.025C0.249,0.027 0.25,0.03 0.25,0.033C0.25,0.042 0.242,0.049 0.233,0.049C0.231,0.049 0.23,0.049 0.228,0.048L0.103,0.202L0.173,0.187L0.178,0.156C0.172,0.152 0.168,0.146 0.168,0.139C0.168,0.127 0.177,0.118 0.188,0.118C0.199,0.118 0.208,0.127 0.208,0.139C0.208,0.149 0.201,0.157 0.191,0.158L0.187,0.184L0.259,0.168L0.391,0.062L0.427,-0.2ZM0.217,0.034L0.159,0.018C0.157,0.022 0.153,0.024 0.148,0.024L0.102,0.183L0.219,0.04C0.218,0.038 0.217,0.036 0.217,0.034ZM0.196,0.139C0.196,0.134 0.192,0.131 0.188,0.131C0.184,0.131 0.181,0.134 0.181,0.139C0.181,0.143 0.184,0.146 0.188,0.146C0.191,0.146 0.194,0.144 0.195,0.141C0.196,0.14 0.196,0.139 0.196,0.139ZM0.373,-0.129C0.373,-0.133 0.369,-0.136 0.365,-0.136C0.361,-0.136 0.358,-0.133 0.358,-0.129C0.358,-0.125 0.361,-0.121 0.365,-0.121C0.368,-0.121 0.371,-0.123 0.372,-0.126C0.372,-0.127 0.373,-0.128 0.373,-0.129ZM0.278,0.117C0.278,0.113 0.275,0.109 0.271,0.109C0.266,0.109 0.263,0.113 0.263,0.117C0.263,0.121 0.266,0.124 0.271,0.124C0.274,0.124 0.276,0.122 0.277,0.119C0.278,0.119 0.278,0.118 0.278,0.117ZM0.477,-0.196L0.44,-0.204L0.429,-0.122L0.49,0.134L0.566,-0.02C0.565,-0.023 0.563,-0.026 0.563,-0.029C0.563,-0.039 0.571,-0.046 0.58,-0.046L0.61,-0.106C0.609,-0.107 0.608,-0.107 0.607,-0.108L0.513,-0.049C0.513,-0.048 0.513,-0.046 0.513,-0.045C0.513,-0.034 0.504,-0.025 0.493,-0.025C0.482,-0.025 0.473,-0.034 0.473,-0.045C0.473,-0.056 0.482,-0.065 0.493,-0.065C0.498,-0.065 0.503,-0.063 0.506,-0.06L0.601,-0.119C0.6,-0.12 0.6,-0.121 0.6,-0.121C0.6,-0.131 0.608,-0.138 0.617,-0.138C0.62,-0.138 0.622,-0.138 0.625,-0.137L0.638,-0.164L0.494,-0.193L0.518,-0.148C0.52,-0.148 0.521,-0.149 0.523,-0.149C0.534,-0.149 0.543,-0.14 0.543,-0.129C0.543,-0.118 0.534,-0.109 0.523,-0.109C0.512,-0.109 0.503,-0.118 0.503,-0.129C0.503,-0.133 0.504,-0.138 0.507,-0.141L0.477,-0.196ZM0.424,-0.087L0.404,0.063L0.477,0.133L0.424,-0.087ZM0.53,-0.129C0.53,-0.133 0.527,-0.136 0.523,-0.136C0.519,-0.136 0.515,-0.133 0.515,-0.129C0.515,-0.125 0.519,-0.121 0.523,-0.121C0.526,-0.121 0.529,-0.123 0.53,-0.126C0.53,-0.127 0.53,-0.128 0.53,-0.129ZM0.5,-0.045C0.5,-0.049 0.497,-0.052 0.493,-0.052C0.489,-0.052 0.486,-0.049 0.486,-0.045C0.486,-0.041 0.489,-0.037 0.493,-0.037C0.496,-0.037 0.499,-0.039 0.5,-0.042C0.5,-0.043 0.5,-0.044 0.5,-0.045ZM0.661,0.055C0.65,0.055 0.641,0.046 0.641,0.035C0.641,0.034 0.642,0.032 0.642,0.03L0.59,-0.016C0.588,-0.014 0.584,-0.013 0.58,-0.013C0.579,-0.013 0.578,-0.013 0.577,-0.013L0.5,0.142L0.707,0.077L0.764,-0.093L0.65,-0.16L0.634,-0.126C0.634,-0.124 0.634,-0.123 0.634,-0.121C0.634,-0.114 0.63,-0.108 0.623,-0.105L0.592,-0.042C0.595,-0.039 0.597,-0.034 0.597,-0.029C0.597,-0.029 0.597,-0.028 0.597,-0.027L0.649,0.02C0.652,0.017 0.657,0.015 0.661,0.015C0.673,0.015 0.682,0.024 0.682,0.035C0.682,0.038 0.681,0.04 0.68,0.043C0.677,0.05 0.67,0.055 0.661,0.055ZM0.669,0.035C0.669,0.031 0.666,0.028 0.661,0.028C0.66,0.028 0.659,0.028 0.658,0.029L0.655,0.032C0.654,0.033 0.654,0.034 0.654,0.035C0.654,0.04 0.657,0.043 0.661,0.043C0.665,0.043 0.667,0.041 0.668,0.038C0.669,0.037 0.669,0.036 0.669,0.035Z" style="fill:url(#_Linear16);fill-rule:nonzero;"/>
                            </g>
                        </g>
                        <g id="Torso">
                            <g id="Segmento-derecho" serif:id="Segmento derecho" transform="matrix(-211.518,547.818,547.818,211.518,567.003,233.331)">
                                <path d="M0.612,0.003L0.652,-0.009L0.679,-0.009L0.618,0.009L0.612,0.003Z" style="fill:url(#_Linear17);fill-rule:nonzero;"/>
                            </g>
                            <g id="Segmento-izquierdo" serif:id="Segmento izquierdo" transform="matrix(-211.518,547.818,547.818,211.518,542.652,223.929)">
                                <path d="M0.618,-0.009C0.623,-0.007 0.628,-0.006 0.632,-0.005L0.632,-0.005C0.657,0.002 0.679,0.008 0.678,0.009L0.652,0.009C0.652,0.008 0.644,0.006 0.633,0.003L0.633,0.003L0.612,-0.003L0.618,-0.009Z" style="fill:url(#_Linear18);fill-rule:nonzero;"/>
                            </g>
                            <g id="Abdomen" transform="matrix(-211.518,547.818,547.818,211.518,555.466,228.876)">
                                <path d="M0.549,-0.03C0.549,-0.03 0.656,-0.001 0.654,-0.001C0.652,-0 0.549,0.03 0.549,0.03L0.505,0.019L0.505,-0.019L0.549,-0.03Z" style="fill:url(#_Linear19);fill-rule:nonzero;"/>
                            </g>
                            <g id="Torax" transform="matrix(-211.518,547.818,547.818,211.518,554.584,228.536)">
                                <path d="M0.262,0.002C0.264,0.001 0.364,-0.038 0.364,-0.038L0.406,-0.017L0.406,0.019L0.361,0.038C0.361,0.038 0.261,0.003 0.262,0.002C0.262,0.002 0.262,0.002 0.262,0.002Z" style="fill:url(#_Linear20);fill-rule:nonzero;"/>
                            </g>
                            <g id="Cabeza" transform="matrix(-211.518,547.818,547.818,211.518,554.584,228.536)">
                                <path d="M0.2,0.002C0.202,0.001 0.302,-0.038 0.302,-0.038L0.313,-0.033C0.285,-0.022 0.226,0.001 0.224,0.002C0.223,0.002 0.283,0.023 0.311,0.033L0.3,0.038C0.3,0.038 0.2,0.003 0.2,0.002C0.2,0.002 0.2,0.002 0.2,0.002Z" style="fill:url(#_Linear21);fill-rule:nonzero;"/>
                            </g>
                            <g id="Antena-derecha" serif:id="Antena derecha" transform="matrix(-211.518,547.818,547.818,211.518,585.952,240.647)">
                                <path d="M0.092,-0.004C0.095,-0.004 0.099,-0.003 0.101,-0.001L0.136,-0.036L0.256,-0.036L0.276,-0.03L0.145,-0.03L0.11,0.007C0.111,0.01 0.112,0.013 0.112,0.016C0.112,0.027 0.103,0.036 0.092,0.036C0.081,0.036 0.072,0.027 0.072,0.016C0.072,0.014 0.072,0.011 0.073,0.009C0.076,0.002 0.083,-0.004 0.092,-0.004ZM0.099,0.016C0.099,0.012 0.096,0.009 0.092,0.009C0.088,0.009 0.085,0.012 0.085,0.016C0.085,0.02 0.088,0.024 0.092,0.024C0.095,0.024 0.098,0.022 0.099,0.019C0.099,0.018 0.099,0.017 0.099,0.016Z" style="fill:url(#_Linear22);fill-rule:nonzero;"/>
                            </g>
                            <g id="Antena-izquirda" serif:id="Antena izquirda" transform="matrix(-211.518,547.818,547.818,211.518,525.292,217.226)">
                                <path d="M0.092,-0.037C0.103,-0.037 0.112,-0.028 0.112,-0.017C0.112,-0.014 0.111,-0.01 0.109,-0.007L0.145,0.031L0.276,0.031L0.256,0.037L0.136,0.037L0.1,0.001C0.098,0.002 0.095,0.003 0.092,0.003C0.081,0.003 0.072,-0.006 0.072,-0.017C0.072,-0.02 0.072,-0.022 0.073,-0.024C0.076,-0.032 0.083,-0.037 0.092,-0.037ZM0.099,-0.017C0.099,-0.021 0.096,-0.025 0.092,-0.025C0.088,-0.025 0.085,-0.021 0.085,-0.017C0.085,-0.013 0.088,-0.01 0.092,-0.01C0.095,-0.01 0.098,-0.012 0.099,-0.015C0.099,-0.015 0.099,-0.016 0.099,-0.017Z" style="fill:url(#_Linear23);fill-rule:nonzero;"/>
                            </g>
                        </g>
                        <g id="Ala-izquierda" serif:id="Ala izquierda">
                            <g id="Ala" transform="matrix(-211.518,547.818,547.818,211.518,426.392,179.04)">
                                <path d="M0.081,-0.214L0.088,-0.218L0.263,-0.18L0.265,-0.179L0.397,-0.074L0.483,-0.157L0.49,-0.158L0.714,-0.088L0.718,-0.084L0.777,0.094L0.775,0.102L0.651,0.174L0.649,0.175L0.437,0.217L0.437,0.217L0.434,0.218L0.427,0.214L0.167,0.079L0.165,0.077L0.027,-0.088L0.026,-0.095L0.081,-0.214ZM0.086,-0.194L0.039,-0.093L0.156,0.046L0.144,0.005C0.137,0.004 0.133,-0.002 0.133,-0.009C0.133,-0.013 0.134,-0.017 0.137,-0.019L0.086,-0.194ZM0.173,-0.187L0.103,-0.202L0.228,-0.048C0.23,-0.049 0.231,-0.049 0.233,-0.049C0.242,-0.049 0.25,-0.042 0.25,-0.033C0.25,-0.03 0.249,-0.027 0.247,-0.025L0.294,0.033L0.269,-0.097C0.259,-0.098 0.25,-0.106 0.25,-0.117C0.25,-0.128 0.259,-0.137 0.271,-0.137C0.282,-0.137 0.291,-0.128 0.291,-0.117C0.291,-0.11 0.287,-0.103 0.281,-0.1L0.308,0.034C0.314,0.037 0.319,0.043 0.319,0.05C0.319,0.054 0.318,0.057 0.316,0.06L0.357,0.11C0.36,0.109 0.362,0.109 0.365,0.109C0.376,0.109 0.385,0.118 0.385,0.129C0.385,0.14 0.376,0.149 0.365,0.149C0.354,0.149 0.345,0.14 0.345,0.129C0.345,0.125 0.346,0.122 0.348,0.119L0.306,0.067C0.304,0.067 0.303,0.067 0.302,0.067C0.292,0.067 0.285,0.06 0.285,0.05C0.285,0.048 0.285,0.045 0.286,0.043L0.237,-0.017C0.236,-0.017 0.235,-0.017 0.233,-0.017C0.228,-0.017 0.224,-0.019 0.221,-0.022L0.162,-0.006C0.162,-0.002 0.159,0.001 0.156,0.003L0.175,0.069L0.427,0.2L0.391,-0.062L0.259,-0.168L0.187,-0.184L0.191,-0.158C0.201,-0.157 0.208,-0.149 0.208,-0.139C0.208,-0.128 0.199,-0.119 0.188,-0.119C0.177,-0.119 0.168,-0.128 0.168,-0.139C0.168,-0.146 0.172,-0.152 0.178,-0.156L0.173,-0.187ZM0.102,-0.183L0.148,-0.024C0.153,-0.024 0.157,-0.022 0.159,-0.018L0.217,-0.034C0.217,-0.036 0.218,-0.038 0.219,-0.04L0.102,-0.183ZM0.196,-0.139C0.196,-0.143 0.192,-0.146 0.188,-0.146C0.184,-0.146 0.181,-0.143 0.181,-0.139C0.181,-0.134 0.184,-0.131 0.188,-0.131C0.191,-0.131 0.194,-0.133 0.195,-0.136C0.196,-0.137 0.196,-0.138 0.196,-0.139ZM0.278,-0.117C0.278,-0.121 0.275,-0.124 0.271,-0.124C0.266,-0.124 0.263,-0.121 0.263,-0.117C0.263,-0.113 0.266,-0.109 0.271,-0.109C0.274,-0.109 0.276,-0.111 0.277,-0.114C0.278,-0.115 0.278,-0.116 0.278,-0.117ZM0.477,-0.133L0.404,-0.063L0.424,0.087L0.477,-0.133ZM0.373,0.129C0.373,0.125 0.369,0.121 0.365,0.121C0.361,0.121 0.358,0.125 0.358,0.129C0.358,0.133 0.361,0.136 0.365,0.136C0.368,0.136 0.371,0.134 0.372,0.131C0.372,0.13 0.373,0.13 0.373,0.129ZM0.49,-0.134L0.429,0.122L0.44,0.204L0.477,0.196L0.507,0.141C0.504,0.138 0.503,0.133 0.503,0.129C0.503,0.118 0.512,0.109 0.523,0.109C0.534,0.109 0.543,0.118 0.543,0.129C0.543,0.14 0.534,0.149 0.523,0.149C0.521,0.149 0.52,0.148 0.518,0.148L0.494,0.193L0.638,0.164L0.625,0.136C0.622,0.138 0.62,0.138 0.617,0.138C0.608,0.138 0.6,0.131 0.6,0.121C0.6,0.12 0.6,0.12 0.601,0.119L0.506,0.06C0.503,0.063 0.498,0.065 0.493,0.065C0.482,0.065 0.473,0.056 0.473,0.045C0.473,0.034 0.482,0.025 0.493,0.025C0.504,0.025 0.513,0.034 0.513,0.045C0.513,0.046 0.513,0.048 0.513,0.049L0.607,0.108C0.608,0.107 0.609,0.107 0.61,0.106L0.58,0.046C0.571,0.046 0.563,0.039 0.563,0.029C0.563,0.026 0.565,0.022 0.566,0.02L0.49,-0.134ZM0.707,-0.077L0.5,-0.142L0.577,0.013C0.578,0.013 0.579,0.013 0.58,0.013C0.584,0.013 0.588,0.014 0.59,0.016L0.642,-0.03C0.642,-0.032 0.641,-0.034 0.641,-0.035C0.641,-0.047 0.65,-0.055 0.661,-0.055C0.673,-0.055 0.682,-0.047 0.682,-0.035C0.682,-0.024 0.673,-0.015 0.661,-0.015C0.657,-0.015 0.652,-0.017 0.649,-0.02L0.597,0.027C0.597,0.028 0.597,0.029 0.597,0.029C0.597,0.034 0.595,0.039 0.592,0.042L0.623,0.105C0.63,0.108 0.634,0.114 0.634,0.121C0.634,0.123 0.634,0.124 0.634,0.126L0.65,0.16L0.764,0.093L0.707,-0.077ZM0.5,0.045C0.5,0.041 0.497,0.037 0.493,0.037C0.489,0.037 0.486,0.041 0.486,0.045C0.486,0.049 0.489,0.052 0.493,0.052C0.496,0.052 0.499,0.05 0.5,0.047C0.5,0.046 0.5,0.046 0.5,0.045ZM0.53,0.129C0.53,0.125 0.527,0.121 0.523,0.121C0.519,0.121 0.515,0.125 0.515,0.129C0.515,0.133 0.519,0.136 0.523,0.136C0.526,0.136 0.529,0.134 0.53,0.131C0.53,0.13 0.53,0.13 0.53,0.129ZM0.669,-0.035C0.669,-0.04 0.666,-0.043 0.661,-0.043C0.657,-0.043 0.654,-0.04 0.654,-0.035C0.654,-0.034 0.654,-0.033 0.655,-0.032L0.658,-0.029C0.659,-0.028 0.66,-0.028 0.661,-0.028C0.665,-0.028 0.667,-0.03 0.668,-0.033C0.669,-0.034 0.669,-0.035 0.669,-0.035Z" style="fill:url(#_Linear24);fill-rule:nonzero;"/>
                            </g>
                            <g id="Margen-inferior" serif:id="Margen inferior" transform="matrix(-211.518,547.818,547.818,211.518,352.169,150.381)">
                                <path d="M0.556,-0.037L0.753,0.037L0.534,-0.029L0.556,-0.037Z" style="fill:url(#_Linear25);fill-rule:nonzero;"/>
                            </g>
                            <g id="Margen-medio" serif:id="Margen medio" transform="matrix(-211.518,547.818,547.818,211.518,332.073,142.622)">
                                <path d="M0.279,-0.025L0.367,0.056L0.276,-0.015L0.142,-0.046L0.142,-0.056L0.279,-0.025Z" style="fill:url(#_Linear26);fill-rule:nonzero;"/>
                            </g>
                            <g id="Margen-superior" serif:id="Margen superior" transform="matrix(-211.518,547.818,547.818,211.518,302.967,131.384)">
                                <path d="M0.131,-0.005L0.131,0.005L0.113,0.001L0.131,-0.005Z" style="fill:url(#_Linear27);fill-rule:nonzero;"/>
                            </g>
                        </g>
                    </g>
                    <g>
                        <g id="Ala-derecha1" serif:id="Ala derecha">
                            <g transform="matrix(-211.518,547.818,547.818,211.518,757.561,306.907)">
                                <path d="M0.753,-0.037L0.556,0.037L0.534,0.029L0.753,-0.037Z" style="fill:url(#_Linear28);fill-rule:nonzero;"/>
                            </g>
                            <g transform="matrix(-211.518,547.818,547.818,211.518,781.171,316.023)">
                                <path d="M0.276,0.015L0.367,-0.056L0.279,0.025L0.142,0.056L0.142,0.046L0.276,0.015Z" style="fill:url(#_Linear29);fill-rule:nonzero;"/>
                            </g>
                            <g transform="matrix(-211.518,547.818,547.818,211.518,810.276,327.261)">
                                <path d="M0.131,-0.005L0.131,0.005L0.113,-0.001L0.131,-0.005Z" style="fill:url(#_Linear30);fill-rule:nonzero;"/>
                            </g>
                            <g transform="matrix(-211.518,547.818,547.818,211.518,684.249,278.601)">
                                <path d="M0.165,-0.077L0.167,-0.079L0.431,-0.217L0.434,-0.218L0.436,-0.217L0.436,-0.217L0.437,-0.217L0.437,-0.217L0.649,-0.175L0.651,-0.174L0.775,-0.102L0.777,-0.094L0.718,0.084L0.714,0.088L0.49,0.158L0.483,0.157L0.397,0.074L0.265,0.179L0.263,0.18L0.088,0.218L0.081,0.214L0.026,0.095L0.027,0.088L0.165,-0.077ZM0.156,-0.046L0.039,0.093L0.086,0.194L0.137,0.019C0.134,0.017 0.133,0.013 0.133,0.009C0.133,0.002 0.137,-0.004 0.144,-0.005L0.156,-0.046ZM0.427,-0.2L0.175,-0.069L0.156,-0.003C0.159,-0.001 0.162,0.002 0.162,0.006L0.221,0.022C0.224,0.019 0.228,0.017 0.233,0.017C0.235,0.017 0.236,0.017 0.237,0.017L0.286,-0.043C0.285,-0.045 0.285,-0.048 0.285,-0.05C0.285,-0.06 0.292,-0.067 0.302,-0.067C0.303,-0.067 0.304,-0.067 0.306,-0.067L0.348,-0.119C0.346,-0.122 0.345,-0.125 0.345,-0.129C0.345,-0.14 0.354,-0.149 0.365,-0.149C0.376,-0.149 0.385,-0.14 0.385,-0.129C0.385,-0.118 0.376,-0.109 0.365,-0.109C0.362,-0.109 0.36,-0.109 0.357,-0.11L0.316,-0.06C0.318,-0.057 0.319,-0.054 0.319,-0.05C0.319,-0.043 0.314,-0.037 0.308,-0.034L0.281,0.1C0.287,0.103 0.291,0.11 0.291,0.117C0.291,0.128 0.282,0.137 0.271,0.137C0.259,0.137 0.25,0.128 0.25,0.117C0.25,0.106 0.259,0.098 0.269,0.097L0.294,-0.033L0.247,0.025C0.249,0.027 0.25,0.03 0.25,0.033C0.25,0.042 0.242,0.049 0.233,0.049C0.231,0.049 0.23,0.049 0.228,0.048L0.103,0.202L0.173,0.187L0.178,0.156C0.172,0.152 0.168,0.146 0.168,0.139C0.168,0.127 0.177,0.118 0.188,0.118C0.199,0.118 0.208,0.127 0.208,0.139C0.208,0.149 0.201,0.157 0.191,0.158L0.187,0.184L0.259,0.168L0.391,0.062L0.427,-0.2ZM0.217,0.034L0.159,0.018C0.157,0.022 0.153,0.024 0.148,0.024L0.102,0.183L0.219,0.04C0.218,0.038 0.217,0.036 0.217,0.034ZM0.196,0.139C0.196,0.134 0.192,0.131 0.188,0.131C0.184,0.131 0.181,0.134 0.181,0.139C0.181,0.143 0.184,0.146 0.188,0.146C0.191,0.146 0.194,0.144 0.195,0.141C0.196,0.14 0.196,0.139 0.196,0.139ZM0.373,-0.129C0.373,-0.133 0.369,-0.136 0.365,-0.136C0.361,-0.136 0.358,-0.133 0.358,-0.129C0.358,-0.125 0.361,-0.121 0.365,-0.121C0.368,-0.121 0.371,-0.123 0.372,-0.126C0.372,-0.127 0.373,-0.128 0.373,-0.129ZM0.278,0.117C0.278,0.113 0.275,0.109 0.271,0.109C0.266,0.109 0.263,0.113 0.263,0.117C0.263,0.121 0.266,0.124 0.271,0.124C0.274,0.124 0.276,0.122 0.277,0.119C0.278,0.119 0.278,0.118 0.278,0.117ZM0.477,-0.196L0.44,-0.204L0.429,-0.122L0.49,0.134L0.566,-0.02C0.565,-0.023 0.563,-0.026 0.563,-0.029C0.563,-0.039 0.571,-0.046 0.58,-0.046L0.61,-0.106C0.609,-0.107 0.608,-0.107 0.607,-0.108L0.513,-0.049C0.513,-0.048 0.513,-0.046 0.513,-0.045C0.513,-0.034 0.504,-0.025 0.493,-0.025C0.482,-0.025 0.473,-0.034 0.473,-0.045C0.473,-0.056 0.482,-0.065 0.493,-0.065C0.498,-0.065 0.503,-0.063 0.506,-0.06L0.601,-0.119C0.6,-0.12 0.6,-0.121 0.6,-0.121C0.6,-0.131 0.608,-0.138 0.617,-0.138C0.62,-0.138 0.622,-0.138 0.625,-0.137L0.638,-0.164L0.494,-0.193L0.518,-0.148C0.52,-0.148 0.521,-0.149 0.523,-0.149C0.534,-0.149 0.543,-0.14 0.543,-0.129C0.543,-0.118 0.534,-0.109 0.523,-0.109C0.512,-0.109 0.503,-0.118 0.503,-0.129C0.503,-0.133 0.504,-0.138 0.507,-0.141L0.477,-0.196ZM0.424,-0.087L0.404,0.063L0.477,0.133L0.424,-0.087ZM0.53,-0.129C0.53,-0.133 0.527,-0.136 0.523,-0.136C0.519,-0.136 0.515,-0.133 0.515,-0.129C0.515,-0.125 0.519,-0.121 0.523,-0.121C0.526,-0.121 0.529,-0.123 0.53,-0.126C0.53,-0.127 0.53,-0.128 0.53,-0.129ZM0.5,-0.045C0.5,-0.049 0.497,-0.052 0.493,-0.052C0.489,-0.052 0.486,-0.049 0.486,-0.045C0.486,-0.041 0.489,-0.037 0.493,-0.037C0.496,-0.037 0.499,-0.039 0.5,-0.042C0.5,-0.043 0.5,-0.044 0.5,-0.045ZM0.661,0.055C0.65,0.055 0.641,0.046 0.641,0.035C0.641,0.034 0.642,0.032 0.642,0.03L0.59,-0.016C0.588,-0.014 0.584,-0.013 0.58,-0.013C0.579,-0.013 0.578,-0.013 0.577,-0.013L0.5,0.142L0.707,0.077L0.764,-0.093L0.65,-0.16L0.634,-0.126C0.634,-0.124 0.634,-0.123 0.634,-0.121C0.634,-0.114 0.63,-0.108 0.623,-0.105L0.592,-0.042C0.595,-0.039 0.597,-0.034 0.597,-0.029C0.597,-0.029 0.597,-0.028 0.597,-0.027L0.649,0.02C0.652,0.017 0.657,0.015 0.661,0.015C0.673,0.015 0.682,0.024 0.682,0.035C0.682,0.038 0.681,0.04 0.68,0.043C0.677,0.05 0.67,0.055 0.661,0.055ZM0.669,0.035C0.669,0.031 0.666,0.028 0.661,0.028C0.66,0.028 0.659,0.028 0.658,0.029L0.655,0.032C0.654,0.033 0.654,0.034 0.654,0.035C0.654,0.04 0.657,0.043 0.661,0.043C0.665,0.043 0.667,0.041 0.668,0.038C0.669,0.037 0.669,0.036 0.669,0.035Z" style="fill:url(#_Linear31);fill-rule:nonzero;"/>
                            </g>
                        </g>
                        <g id="Torso1" serif:id="Torso">
                            <g id="Segmento-derecho1" serif:id="Segmento derecho" transform="matrix(-211.518,547.818,547.818,211.518,567.003,233.331)">
                                <path d="M0.612,0.003L0.652,-0.009L0.679,-0.009L0.618,0.009L0.612,0.003Z" style="fill:url(#_Linear32);fill-rule:nonzero;"/>
                            </g>
                            <g id="Segmento-izquierdo1" serif:id="Segmento izquierdo" transform="matrix(-211.518,547.818,547.818,211.518,542.652,223.929)">
                                <path d="M0.618,-0.009C0.623,-0.007 0.628,-0.006 0.632,-0.005L0.632,-0.005C0.657,0.002 0.679,0.008 0.678,0.009L0.652,0.009C0.652,0.008 0.644,0.006 0.633,0.003L0.633,0.003L0.612,-0.003L0.618,-0.009Z" style="fill:url(#_Linear33);fill-rule:nonzero;"/>
                            </g>
                            <g id="Abdomen1" serif:id="Abdomen" transform="matrix(-211.518,547.818,547.818,211.518,555.466,228.876)">
                                <path d="M0.549,-0.03C0.549,-0.03 0.656,-0.001 0.654,-0.001C0.652,-0 0.549,0.03 0.549,0.03L0.505,0.019L0.505,-0.019L0.549,-0.03Z" style="fill:url(#_Linear34);fill-rule:nonzero;"/>
                            </g>
                            <g id="Torax1" serif:id="Torax" transform="matrix(-211.518,547.818,547.818,211.518,554.584,228.536)">
                                <path d="M0.262,0.002C0.264,0.001 0.364,-0.038 0.364,-0.038L0.406,-0.017L0.406,0.019L0.361,0.038C0.361,0.038 0.261,0.003 0.262,0.002C0.262,0.002 0.262,0.002 0.262,0.002Z" style="fill:url(#_Linear35);fill-rule:nonzero;"/>
                            </g>
                            <g id="Cabeza1" serif:id="Cabeza" transform="matrix(-211.518,547.818,547.818,211.518,554.584,228.536)">
                                <path d="M0.2,0.002C0.202,0.001 0.302,-0.038 0.302,-0.038L0.313,-0.033C0.285,-0.022 0.226,0.001 0.224,0.002C0.223,0.002 0.283,0.023 0.311,0.033L0.3,0.038C0.3,0.038 0.2,0.003 0.2,0.002C0.2,0.002 0.2,0.002 0.2,0.002Z" style="fill:url(#_Linear36);fill-rule:nonzero;"/>
                            </g>
                            <g id="Antena-derecha1" serif:id="Antena derecha" transform="matrix(-211.518,547.818,547.818,211.518,585.952,240.647)">
                                <path d="M0.092,-0.004C0.095,-0.004 0.099,-0.003 0.101,-0.001L0.136,-0.036L0.256,-0.036L0.276,-0.03L0.145,-0.03L0.11,0.007C0.111,0.01 0.112,0.013 0.112,0.016C0.112,0.027 0.103,0.036 0.092,0.036C0.081,0.036 0.072,0.027 0.072,0.016C0.072,0.014 0.072,0.011 0.073,0.009C0.076,0.002 0.083,-0.004 0.092,-0.004ZM0.099,0.016C0.099,0.012 0.096,0.009 0.092,0.009C0.088,0.009 0.085,0.012 0.085,0.016C0.085,0.02 0.088,0.024 0.092,0.024C0.095,0.024 0.098,0.022 0.099,0.019C0.099,0.018 0.099,0.017 0.099,0.016Z" style="fill:url(#_Linear37);fill-rule:nonzero;"/>
                            </g>
                            <g id="Antena-izquirda1" serif:id="Antena izquirda" transform="matrix(-211.518,547.818,547.818,211.518,525.292,217.226)">
                                <path d="M0.092,-0.037C0.103,-0.037 0.112,-0.028 0.112,-0.017C0.112,-0.014 0.111,-0.01 0.109,-0.007L0.145,0.031L0.276,0.031L0.256,0.037L0.136,0.037L0.1,0.001C0.098,0.002 0.095,0.003 0.092,0.003C0.081,0.003 0.072,-0.006 0.072,-0.017C0.072,-0.02 0.072,-0.022 0.073,-0.024C0.076,-0.032 0.083,-0.037 0.092,-0.037ZM0.099,-0.017C0.099,-0.021 0.096,-0.025 0.092,-0.025C0.088,-0.025 0.085,-0.021 0.085,-0.017C0.085,-0.013 0.088,-0.01 0.092,-0.01C0.095,-0.01 0.098,-0.012 0.099,-0.015C0.099,-0.015 0.099,-0.016 0.099,-0.017Z" style="fill:url(#_Linear38);fill-rule:nonzero;"/>
                            </g>
                        </g>
                        <g id="Ala-izquierda1" serif:id="Ala izquierda">
                            <g id="Ala1" serif:id="Ala" transform="matrix(-211.518,547.818,547.818,211.518,426.392,179.04)">
                                <path d="M0.081,-0.214L0.088,-0.218L0.263,-0.18L0.265,-0.179L0.397,-0.074L0.483,-0.157L0.49,-0.158L0.714,-0.088L0.718,-0.084L0.777,0.094L0.775,0.102L0.651,0.174L0.649,0.175L0.437,0.217L0.437,0.217L0.434,0.218L0.427,0.214L0.167,0.079L0.165,0.077L0.027,-0.088L0.026,-0.095L0.081,-0.214ZM0.086,-0.194L0.039,-0.093L0.156,0.046L0.144,0.005C0.137,0.004 0.133,-0.002 0.133,-0.009C0.133,-0.013 0.134,-0.017 0.137,-0.019L0.086,-0.194ZM0.173,-0.187L0.103,-0.202L0.228,-0.048C0.23,-0.049 0.231,-0.049 0.233,-0.049C0.242,-0.049 0.25,-0.042 0.25,-0.033C0.25,-0.03 0.249,-0.027 0.247,-0.025L0.294,0.033L0.269,-0.097C0.259,-0.098 0.25,-0.106 0.25,-0.117C0.25,-0.128 0.259,-0.137 0.271,-0.137C0.282,-0.137 0.291,-0.128 0.291,-0.117C0.291,-0.11 0.287,-0.103 0.281,-0.1L0.308,0.034C0.314,0.037 0.319,0.043 0.319,0.05C0.319,0.054 0.318,0.057 0.316,0.06L0.357,0.11C0.36,0.109 0.362,0.109 0.365,0.109C0.376,0.109 0.385,0.118 0.385,0.129C0.385,0.14 0.376,0.149 0.365,0.149C0.354,0.149 0.345,0.14 0.345,0.129C0.345,0.125 0.346,0.122 0.348,0.119L0.306,0.067C0.304,0.067 0.303,0.067 0.302,0.067C0.292,0.067 0.285,0.06 0.285,0.05C0.285,0.048 0.285,0.045 0.286,0.043L0.237,-0.017C0.236,-0.017 0.235,-0.017 0.233,-0.017C0.228,-0.017 0.224,-0.019 0.221,-0.022L0.162,-0.006C0.162,-0.002 0.159,0.001 0.156,0.003L0.175,0.069L0.427,0.2L0.391,-0.062L0.259,-0.168L0.187,-0.184L0.191,-0.158C0.201,-0.157 0.208,-0.149 0.208,-0.139C0.208,-0.128 0.199,-0.119 0.188,-0.119C0.177,-0.119 0.168,-0.128 0.168,-0.139C0.168,-0.146 0.172,-0.152 0.178,-0.156L0.173,-0.187ZM0.102,-0.183L0.148,-0.024C0.153,-0.024 0.157,-0.022 0.159,-0.018L0.217,-0.034C0.217,-0.036 0.218,-0.038 0.219,-0.04L0.102,-0.183ZM0.196,-0.139C0.196,-0.143 0.192,-0.146 0.188,-0.146C0.184,-0.146 0.181,-0.143 0.181,-0.139C0.181,-0.134 0.184,-0.131 0.188,-0.131C0.191,-0.131 0.194,-0.133 0.195,-0.136C0.196,-0.137 0.196,-0.138 0.196,-0.139ZM0.278,-0.117C0.278,-0.121 0.275,-0.124 0.271,-0.124C0.266,-0.124 0.263,-0.121 0.263,-0.117C0.263,-0.113 0.266,-0.109 0.271,-0.109C0.274,-0.109 0.276,-0.111 0.277,-0.114C0.278,-0.115 0.278,-0.116 0.278,-0.117ZM0.477,-0.133L0.404,-0.063L0.424,0.087L0.477,-0.133ZM0.373,0.129C0.373,0.125 0.369,0.121 0.365,0.121C0.361,0.121 0.358,0.125 0.358,0.129C0.358,0.133 0.361,0.136 0.365,0.136C0.368,0.136 0.371,0.134 0.372,0.131C0.372,0.13 0.373,0.13 0.373,0.129ZM0.49,-0.134L0.429,0.122L0.44,0.204L0.477,0.196L0.507,0.141C0.504,0.138 0.503,0.133 0.503,0.129C0.503,0.118 0.512,0.109 0.523,0.109C0.534,0.109 0.543,0.118 0.543,0.129C0.543,0.14 0.534,0.149 0.523,0.149C0.521,0.149 0.52,0.148 0.518,0.148L0.494,0.193L0.638,0.164L0.625,0.136C0.622,0.138 0.62,0.138 0.617,0.138C0.608,0.138 0.6,0.131 0.6,0.121C0.6,0.12 0.6,0.12 0.601,0.119L0.506,0.06C0.503,0.063 0.498,0.065 0.493,0.065C0.482,0.065 0.473,0.056 0.473,0.045C0.473,0.034 0.482,0.025 0.493,0.025C0.504,0.025 0.513,0.034 0.513,0.045C0.513,0.046 0.513,0.048 0.513,0.049L0.607,0.108C0.608,0.107 0.609,0.107 0.61,0.106L0.58,0.046C0.571,0.046 0.563,0.039 0.563,0.029C0.563,0.026 0.565,0.022 0.566,0.02L0.49,-0.134ZM0.707,-0.077L0.5,-0.142L0.577,0.013C0.578,0.013 0.579,0.013 0.58,0.013C0.584,0.013 0.588,0.014 0.59,0.016L0.642,-0.03C0.642,-0.032 0.641,-0.034 0.641,-0.035C0.641,-0.047 0.65,-0.055 0.661,-0.055C0.673,-0.055 0.682,-0.047 0.682,-0.035C0.682,-0.024 0.673,-0.015 0.661,-0.015C0.657,-0.015 0.652,-0.017 0.649,-0.02L0.597,0.027C0.597,0.028 0.597,0.029 0.597,0.029C0.597,0.034 0.595,0.039 0.592,0.042L0.623,0.105C0.63,0.108 0.634,0.114 0.634,0.121C0.634,0.123 0.634,0.124 0.634,0.126L0.65,0.16L0.764,0.093L0.707,-0.077ZM0.5,0.045C0.5,0.041 0.497,0.037 0.493,0.037C0.489,0.037 0.486,0.041 0.486,0.045C0.486,0.049 0.489,0.052 0.493,0.052C0.496,0.052 0.499,0.05 0.5,0.047C0.5,0.046 0.5,0.046 0.5,0.045ZM0.53,0.129C0.53,0.125 0.527,0.121 0.523,0.121C0.519,0.121 0.515,0.125 0.515,0.129C0.515,0.133 0.519,0.136 0.523,0.136C0.526,0.136 0.529,0.134 0.53,0.131C0.53,0.13 0.53,0.13 0.53,0.129ZM0.669,-0.035C0.669,-0.04 0.666,-0.043 0.661,-0.043C0.657,-0.043 0.654,-0.04 0.654,-0.035C0.654,-0.034 0.654,-0.033 0.655,-0.032L0.658,-0.029C0.659,-0.028 0.66,-0.028 0.661,-0.028C0.665,-0.028 0.667,-0.03 0.668,-0.033C0.669,-0.034 0.669,-0.035 0.669,-0.035Z" style="fill:url(#_Linear39);fill-rule:nonzero;"/>
                            </g>
                            <g id="Margen-inferior1" serif:id="Margen inferior" transform="matrix(-211.518,547.818,547.818,211.518,352.169,150.381)">
                                <path d="M0.556,-0.037L0.753,0.037L0.534,-0.029L0.556,-0.037Z" style="fill:url(#_Linear40);fill-rule:nonzero;"/>
                            </g>
                            <g id="Margen-medio1" serif:id="Margen medio" transform="matrix(-211.518,547.818,547.818,211.518,332.073,142.622)">
                                <path d="M0.279,-0.025L0.367,0.056L0.276,-0.015L0.142,-0.046L0.142,-0.056L0.279,-0.025Z" style="fill:url(#_Linear41);fill-rule:nonzero;"/>
                            </g>
                            <g id="Margen-superior1" serif:id="Margen superior" transform="matrix(-211.518,547.818,547.818,211.518,302.967,131.384)">
                                <path d="M0.131,-0.005L0.131,0.005L0.113,0.001L0.131,-0.005Z" style="fill:url(#_Linear42);fill-rule:nonzero;"/>
                            </g>
                        </g>
                    </g>
                </g>
            </g>
        </g>
    </g>
    <defs>
        <linearGradient id="_Linear1" x1="0" y1="0" x2="1" y2="0" gradientUnits="userSpaceOnUse" gradientTransform="matrix(1,0,0,-1,0,-2.69835e-06)"><stop offset="0" style="stop-color:rgb(209,16,227);stop-opacity:1"/><stop offset="0.99" style="stop-color:rgb(33,6,101);stop-opacity:1"/><stop offset="1" style="stop-color:rgb(33,6,101);stop-opacity:1"/></linearGradient>
        <linearGradient id="_Linear2" x1="0" y1="0" x2="1" y2="0" gradientUnits="userSpaceOnUse" gradientTransform="matrix(1,0,0,-1,0,-0.000326777)"><stop offset="0" style="stop-color:rgb(209,16,227);stop-opacity:1"/><stop offset="0.99" style="stop-color:rgb(33,6,101);stop-opacity:1"/><stop offset="1" style="stop-color:rgb(33,6,101);stop-opacity:1"/></linearGradient>
        <linearGradient id="_Linear3" x1="0" y1="0" x2="1" y2="0" gradientUnits="userSpaceOnUse" gradientTransform="matrix(1,0,0,-1,0,6.22863e-07)"><stop offset="0" style="stop-color:rgb(209,16,227);stop-opacity:1"/><stop offset="0.99" style="stop-color:rgb(33,6,101);stop-opacity:1"/><stop offset="1" style="stop-color:rgb(33,6,101);stop-opacity:1"/></linearGradient>
        <linearGradient id="_Linear4" x1="0" y1="0" x2="1" y2="0" gradientUnits="userSpaceOnUse" gradientTransform="matrix(1,0,0,-1,0,-7.58642e-07)"><stop offset="0" style="stop-color:rgb(209,16,227);stop-opacity:1"/><stop offset="0.99" style="stop-color:rgb(33,6,101);stop-opacity:1"/><stop offset="1" style="stop-color:rgb(33,6,101);stop-opacity:1"/></linearGradient>
        <linearGradient id="_Linear5" x1="0" y1="0" x2="1" y2="0" gradientUnits="userSpaceOnUse" gradientTransform="matrix(1,0,0,-1,0,-3.18026e-06)"><stop offset="0" style="stop-color:rgb(209,16,227);stop-opacity:1"/><stop offset="0.99" style="stop-color:rgb(33,6,101);stop-opacity:1"/><stop offset="1" style="stop-color:rgb(33,6,101);stop-opacity:1"/></linearGradient>
        <linearGradient id="_Linear6" x1="0" y1="0" x2="1" y2="0" gradientUnits="userSpaceOnUse" gradientTransform="matrix(0,-1,-1,-0,0.298178,0.298178)"><stop offset="0" style="stop-color:rgb(209,16,227);stop-opacity:1"/><stop offset="0.99" style="stop-color:rgb(33,6,101);stop-opacity:1"/><stop offset="1" style="stop-color:rgb(33,6,101);stop-opacity:1"/></linearGradient>
        <linearGradient id="_Linear7" x1="0" y1="0" x2="1" y2="0" gradientUnits="userSpaceOnUse" gradientTransform="matrix(1,0,0,-1,0,-2.69835e-06)"><stop offset="0" style="stop-color:rgb(209,16,227);stop-opacity:1"/><stop offset="0.99" style="stop-color:rgb(33,6,101);stop-opacity:1"/><stop offset="1" style="stop-color:rgb(33,6,101);stop-opacity:1"/></linearGradient>
        <linearGradient id="_Linear8" x1="0" y1="0" x2="1" y2="0" gradientUnits="userSpaceOnUse" gradientTransform="matrix(1,0,0,-1,0,-0.000326777)"><stop offset="0" style="stop-color:rgb(209,16,227);stop-opacity:1"/><stop offset="0.99" style="stop-color:rgb(33,6,101);stop-opacity:1"/><stop offset="1" style="stop-color:rgb(33,6,101);stop-opacity:1"/></linearGradient>
        <linearGradient id="_Linear9" x1="0" y1="0" x2="1" y2="0" gradientUnits="userSpaceOnUse" gradientTransform="matrix(1,0,0,-1,0,6.22863e-07)"><stop offset="0" style="stop-color:rgb(209,16,227);stop-opacity:1"/><stop offset="0.99" style="stop-color:rgb(33,6,101);stop-opacity:1"/><stop offset="1" style="stop-color:rgb(33,6,101);stop-opacity:1"/></linearGradient>
        <linearGradient id="_Linear10" x1="0" y1="0" x2="1" y2="0" gradientUnits="userSpaceOnUse" gradientTransform="matrix(1,0,0,-1,0,-7.58642e-07)"><stop offset="0" style="stop-color:rgb(209,16,227);stop-opacity:1"/><stop offset="0.99" style="stop-color:rgb(33,6,101);stop-opacity:1"/><stop offset="1" style="stop-color:rgb(33,6,101);stop-opacity:1"/></linearGradient>
        <linearGradient id="_Linear11" x1="0" y1="0" x2="1" y2="0" gradientUnits="userSpaceOnUse" gradientTransform="matrix(1,0,0,-1,0,-3.18026e-06)"><stop offset="0" style="stop-color:rgb(209,16,227);stop-opacity:1"/><stop offset="0.99" style="stop-color:rgb(33,6,101);stop-opacity:1"/><stop offset="1" style="stop-color:rgb(33,6,101);stop-opacity:1"/></linearGradient>
        <linearGradient id="_Linear12" x1="0" y1="0" x2="1" y2="0" gradientUnits="userSpaceOnUse" gradientTransform="matrix(0,-1,-1,-0,0.298178,0.298178)"><stop offset="0" style="stop-color:rgb(209,16,227);stop-opacity:1"/><stop offset="0.99" style="stop-color:rgb(33,6,101);stop-opacity:1"/><stop offset="1" style="stop-color:rgb(33,6,101);stop-opacity:1"/></linearGradient>
        <linearGradient id="_Linear13" x1="0" y1="0" x2="1" y2="-1.80003e-05" gradientUnits="userSpaceOnUse" gradientTransform="matrix(1,0,0,-1,0,3.03003e-06)"><stop offset="0" style="stop-color:rgb(209,16,227);stop-opacity:1"/><stop offset="0.99" style="stop-color:rgb(33,6,101);stop-opacity:1"/><stop offset="1" style="stop-color:rgb(33,6,101);stop-opacity:1"/></linearGradient>
        <linearGradient id="_Linear14" x1="0" y1="0" x2="1" y2="-1.80003e-05" gradientUnits="userSpaceOnUse" gradientTransform="matrix(1,0,0,-1,0,-1.01821e-07)"><stop offset="0" style="stop-color:rgb(209,16,227);stop-opacity:1"/><stop offset="0.99" style="stop-color:rgb(33,6,101);stop-opacity:1"/><stop offset="1" style="stop-color:rgb(33,6,101);stop-opacity:1"/></linearGradient>
        <linearGradient id="_Linear15" x1="0" y1="0" x2="1" y2="-1.80003e-05" gradientUnits="userSpaceOnUse" gradientTransform="matrix(1,0,0,-1,0,-3.34084e-07)"><stop offset="0" style="stop-color:rgb(209,16,227);stop-opacity:1"/><stop offset="0.99" style="stop-color:rgb(33,6,101);stop-opacity:1"/><stop offset="1" style="stop-color:rgb(33,6,101);stop-opacity:1"/></linearGradient>
        <linearGradient id="_Linear16" x1="0" y1="0" x2="1" y2="-1.80003e-05" gradientUnits="userSpaceOnUse" gradientTransform="matrix(1,0,0,-1,0,6.3972e-07)"><stop offset="0" style="stop-color:rgb(209,16,227);stop-opacity:1"/><stop offset="0.99" style="stop-color:rgb(33,6,101);stop-opacity:1"/><stop offset="1" style="stop-color:rgb(33,6,101);stop-opacity:1"/></linearGradient>
        <linearGradient id="_Linear17" x1="0" y1="0" x2="1" y2="-1.80003e-05" gradientUnits="userSpaceOnUse" gradientTransform="matrix(1,0,0,-1,0,1.09756e-06)"><stop offset="0" style="stop-color:rgb(209,16,227);stop-opacity:1"/><stop offset="0.99" style="stop-color:rgb(33,6,101);stop-opacity:1"/><stop offset="1" style="stop-color:rgb(33,6,101);stop-opacity:1"/></linearGradient>
        <linearGradient id="_Linear18" x1="0" y1="0" x2="1" y2="-1.80003e-05" gradientUnits="userSpaceOnUse" gradientTransform="matrix(1,0,0,-1,0,1.24295e-06)"><stop offset="0" style="stop-color:rgb(209,16,227);stop-opacity:1"/><stop offset="0.99" style="stop-color:rgb(33,6,101);stop-opacity:1"/><stop offset="1" style="stop-color:rgb(33,6,101);stop-opacity:1"/></linearGradient>
        <linearGradient id="_Linear19" x1="0" y1="0" x2="1" y2="-1.80003e-05" gradientUnits="userSpaceOnUse" gradientTransform="matrix(1,0,0,-1,0,1.0572e-06)"><stop offset="0" style="stop-color:rgb(209,16,227);stop-opacity:1"/><stop offset="0.99" style="stop-color:rgb(33,6,101);stop-opacity:1"/><stop offset="1" style="stop-color:rgb(33,6,101);stop-opacity:1"/></linearGradient>
        <linearGradient id="_Linear20" x1="0" y1="0" x2="1" y2="-1.80003e-05" gradientUnits="userSpaceOnUse" gradientTransform="matrix(1,0,0,-1,0,1.15856e-06)"><stop offset="0" style="stop-color:rgb(209,16,227);stop-opacity:1"/><stop offset="0.99" style="stop-color:rgb(33,6,101);stop-opacity:1"/><stop offset="1" style="stop-color:rgb(33,6,101);stop-opacity:1"/></linearGradient>
        <linearGradient id="_Linear21" x1="0" y1="0" x2="1" y2="-1.80003e-05" gradientUnits="userSpaceOnUse" gradientTransform="matrix(1,0,0,-1,0,1.49892e-07)"><stop offset="0" style="stop-color:rgb(209,16,227);stop-opacity:1"/><stop offset="0.99" style="stop-color:rgb(33,6,101);stop-opacity:1"/><stop offset="1" style="stop-color:rgb(33,6,101);stop-opacity:1"/></linearGradient>
        <linearGradient id="_Linear22" x1="0" y1="0" x2="1" y2="-1.80003e-05" gradientUnits="userSpaceOnUse" gradientTransform="matrix(1,0,0,-1,0,-6.05718e-07)"><stop offset="0" style="stop-color:rgb(209,16,227);stop-opacity:1"/><stop offset="0.99" style="stop-color:rgb(33,6,101);stop-opacity:1"/><stop offset="1" style="stop-color:rgb(33,6,101);stop-opacity:1"/></linearGradient>
        <linearGradient id="_Linear23" x1="0" y1="0" x2="1" y2="-1.80003e-05" gradientUnits="userSpaceOnUse" gradientTransform="matrix(1,0,0,-1,0,4.01781e-07)"><stop offset="0" style="stop-color:rgb(209,16,227);stop-opacity:1"/><stop offset="0.99" style="stop-color:rgb(33,6,101);stop-opacity:1"/><stop offset="1" style="stop-color:rgb(33,6,101);stop-opacity:1"/></linearGradient>
        <linearGradient id="_Linear24" x1="0" y1="0" x2="1" y2="-1.80003e-05" gradientUnits="userSpaceOnUse" gradientTransform="matrix(1,0,0,-1,0,1.09834e-06)"><stop offset="0" style="stop-color:rgb(209,16,227);stop-opacity:1"/><stop offset="0.99" style="stop-color:rgb(33,6,101);stop-opacity:1"/><stop offset="1" style="stop-color:rgb(33,6,101);stop-opacity:1"/></linearGradient>
        <linearGradient id="_Linear25" x1="0" y1="0" x2="1" y2="-1.80003e-05" gradientUnits="userSpaceOnUse" gradientTransform="matrix(1,0,0,-1,0,-8.59632e-08)"><stop offset="0" style="stop-color:rgb(209,16,227);stop-opacity:1"/><stop offset="0.99" style="stop-color:rgb(33,6,101);stop-opacity:1"/><stop offset="1" style="stop-color:rgb(33,6,101);stop-opacity:1"/></linearGradient>
        <linearGradient id="_Linear26" x1="0" y1="0" x2="1" y2="-1.80003e-05" gradientUnits="userSpaceOnUse" gradientTransform="matrix(1,0,0,-1,0,-1.80284e-06)"><stop offset="0" style="stop-color:rgb(209,16,227);stop-opacity:1"/><stop offset="0.99" style="stop-color:rgb(33,6,101);stop-opacity:1"/><stop offset="1" style="stop-color:rgb(33,6,101);stop-opacity:1"/></linearGradient>
        <linearGradient id="_Linear27" x1="0" y1="0" x2="1" y2="-1.80003e-05" gradientUnits="userSpaceOnUse" gradientTransform="matrix(1,0,0,-1,0,-1.27512e-07)"><stop offset="0" style="stop-color:rgb(209,16,227);stop-opacity:1"/><stop offset="0.99" style="stop-color:rgb(33,6,101);stop-opacity:1"/><stop offset="1" style="stop-color:rgb(33,6,101);stop-opacity:1"/></linearGradient>
        <linearGradient id="_Linear28" x1="0" y1="0" x2="1" y2="-1.80003e-05" gradientUnits="userSpaceOnUse" gradientTransform="matrix(1,0,0,-1,0,3.03003e-06)"><stop offset="0" style="stop-color:rgb(209,16,227);stop-opacity:1"/><stop offset="0.99" style="stop-color:rgb(33,6,101);stop-opacity:1"/><stop offset="1" style="stop-color:rgb(33,6,101);stop-opacity:1"/></linearGradient>
        <linearGradient id="_Linear29" x1="0" y1="0" x2="1" y2="-1.80003e-05" gradientUnits="userSpaceOnUse" gradientTransform="matrix(1,0,0,-1,0,-1.01821e-07)"><stop offset="0" style="stop-color:rgb(209,16,227);stop-opacity:1"/><stop offset="0.99" style="stop-color:rgb(33,6,101);stop-opacity:1"/><stop offset="1" style="stop-color:rgb(33,6,101);stop-opacity:1"/></linearGradient>
        <linearGradient id="_Linear30" x1="0" y1="0" x2="1" y2="-1.80003e-05" gradientUnits="userSpaceOnUse" gradientTransform="matrix(1,0,0,-1,0,-3.34084e-07)"><stop offset="0" style="stop-color:rgb(209,16,227);stop-opacity:1"/><stop offset="0.99" style="stop-color:rgb(33,6,101);stop-opacity:1"/><stop offset="1" style="stop-color:rgb(33,6,101);stop-opacity:1"/></linearGradient>
        <linearGradient id="_Linear31" x1="0" y1="0" x2="1" y2="-1.80003e-05" gradientUnits="userSpaceOnUse" gradientTransform="matrix(1,0,0,-1,0,6.3972e-07)"><stop offset="0" style="stop-color:rgb(209,16,227);stop-opacity:1"/><stop offset="0.99" style="stop-color:rgb(33,6,101);stop-opacity:1"/><stop offset="1" style="stop-color:rgb(33,6,101);stop-opacity:1"/></linearGradient>
        <linearGradient id="_Linear32" x1="0" y1="0" x2="1" y2="-1.80003e-05" gradientUnits="userSpaceOnUse" gradientTransform="matrix(1,0,0,-1,0,1.09756e-06)"><stop offset="0" style="stop-color:rgb(209,16,227);stop-opacity:1"/><stop offset="0.99" style="stop-color:rgb(33,6,101);stop-opacity:1"/><stop offset="1" style="stop-color:rgb(33,6,101);stop-opacity:1"/></linearGradient>
        <linearGradient id="_Linear33" x1="0" y1="0" x2="1" y2="-1.80003e-05" gradientUnits="userSpaceOnUse" gradientTransform="matrix(1,0,0,-1,0,1.24295e-06)"><stop offset="0" style="stop-color:rgb(209,16,227);stop-opacity:1"/><stop offset="0.99" style="stop-color:rgb(33,6,101);stop-opacity:1"/><stop offset="1" style="stop-color:rgb(33,6,101);stop-opacity:1"/></linearGradient>
        <linearGradient id="_Linear34" x1="0" y1="0" x2="1" y2="-1.80003e-05" gradientUnits="userSpaceOnUse" gradientTransform="matrix(1,0,0,-1,0,1.0572e-06)"><stop offset="0" style="stop-color:rgb(209,16,227);stop-opacity:1"/><stop offset="0.99" style="stop-color:rgb(33,6,101);stop-opacity:1"/><stop offset="1" style="stop-color:rgb(33,6,101);stop-opacity:1"/></linearGradient>
        <linearGradient id="_Linear35" x1="0" y1="0" x2="1" y2="-1.80003e-05" gradientUnits="userSpaceOnUse" gradientTransform="matrix(1,0,0,-1,0,1.15856e-06)"><stop offset="0" style="stop-color:rgb(209,16,227);stop-opacity:1"/><stop offset="0.99" style="stop-color:rgb(33,6,101);stop-opacity:1"/><stop offset="1" style="stop-color:rgb(33,6,101);stop-opacity:1"/></linearGradient>
        <linearGradient id="_Linear36" x1="0" y1="0" x2="1" y2="-1.80003e-05" gradientUnits="userSpaceOnUse" gradientTransform="matrix(1,0,0,-1,0,1.49892e-07)"><stop offset="0" style="stop-color:rgb(209,16,227);stop-opacity:1"/><stop offset="0.99" style="stop-color:rgb(33,6,101);stop-opacity:1"/><stop offset="1" style="stop-color:rgb(33,6,101);stop-opacity:1"/></linearGradient>
        <linearGradient id="_Linear37" x1="0" y1="0" x2="1" y2="-1.80003e-05" gradientUnits="userSpaceOnUse" gradientTransform="matrix(1,0,0,-1,0,-6.05718e-07)"><stop offset="0" style="stop-color:rgb(209,16,227);stop-opacity:1"/><stop offset="0.99" style="stop-color:rgb(33,6,101);stop-opacity:1"/><stop offset="1" style="stop-color:rgb(33,6,101);stop-opacity:1"/></linearGradient>
        <linearGradient id="_Linear38" x1="0" y1="0" x2="1" y2="-1.80003e-05" gradientUnits="userSpaceOnUse" gradientTransform="matrix(1,0,0,-1,0,4.01781e-07)"><stop offset="0" style="stop-color:rgb(209,16,227);stop-opacity:1"/><stop offset="0.99" style="stop-color:rgb(33,6,101);stop-opacity:1"/><stop offset="1" style="stop-color:rgb(33,6,101);stop-opacity:1"/></linearGradient>
        <linearGradient id="_Linear39" x1="0" y1="0" x2="1" y2="-1.80003e-05" gradientUnits="userSpaceOnUse" gradientTransform="matrix(1,0,0,-1,0,1.09834e-06)"><stop offset="0" style="stop-color:rgb(209,16,227);stop-opacity:1"/><stop offset="0.99" style="stop-color:rgb(33,6,101);stop-opacity:1"/><stop offset="1" style="stop-color:rgb(33,6,101);stop-opacity:1"/></linearGradient>
        <linearGradient id="_Linear40" x1="0" y1="0" x2="1" y2="-1.80003e-05" gradientUnits="userSpaceOnUse" gradientTransform="matrix(1,0,0,-1,0,-8.59632e-08)"><stop offset="0" style="stop-color:rgb(209,16,227);stop-opacity:1"/><stop offset="0.99" style="stop-color:rgb(33,6,101);stop-opacity:1"/><stop offset="1" style="stop-color:rgb(33,6,101);stop-opacity:1"/></linearGradient>
        <linearGradient id="_Linear41" x1="0" y1="0" x2="1" y2="-1.80003e-05" gradientUnits="userSpaceOnUse" gradientTransform="matrix(1,0,0,-1,0,-1.80284e-06)"><stop offset="0" style="stop-color:rgb(209,16,227);stop-opacity:1"/><stop offset="0.99" style="stop-color:rgb(33,6,101);stop-opacity:1"/><stop offset="1" style="stop-color:rgb(33,6,101);stop-opacity:1"/></linearGradient>
        <linearGradient id="_Linear42" x1="0" y1="0" x2="1" y2="-1.80003e-05" gradientUnits="userSpaceOnUse" gradientTransform="matrix(1,0,0,-1,0,-1.27512e-07)"><stop offset="0" style="stop-color:rgb(209,16,227);stop-opacity:1"/><stop offset="0.99" style="stop-color:rgb(33,6,101);stop-opacity:1"/><stop offset="1" style="stop-color:rgb(33,6,101);stop-opacity:1"/></linearGradient>
    </defs>
</svg>
