<svg xmlns="http://www.w3.org/2000/svg" viewBox="0 0 120.93 36.83">
    <path fill="#fff" d="M52.83 13.8l-1.69-.71a.61.61 0 0 0-.78.32l-2.72 6.51-2.72-6.51a.59.59 0 0 0-.77-.32l-1.7.71a.61.61 0 0 0-.32.78l4.13 9.86a.59.59 0 0 0 .54.36h1.68a.61.61 0 0 0 .55-.36l4.12-9.86a.6.6 0 0 0-.32-.78zm52.02 0l-1.69-.71a.61.61 0 0 0-.78.32l-2.72 6.51-2.72-6.51a.59.59 0 0 0-.77-.32l-1.7.71a.59.59 0 0 0-.31.78l4.12 9.86a.59.59 0 0 0 .54.36h1.68a.6.6 0 0 0 .55-.36l4.12-9.86a.6.6 0 0 0-.32-.78zM65.7 18.92v-5.4a.59.59 0 0 0-.6-.59h-1.83a.59.59 0 0 0-.6.59v.16a6.07 6.07 0 1 0 0 10.49.6.6 0 0 0 .6.59h1.83a.6.6 0 0 0 .6-.59v-5.24zm-6.07 3a3 3 0 1 1 3-3 3 3 0 0 1-3 3.02zm19.5-3v-9.1a.6.6 0 0 0-.59-.59H76.7a.59.59 0 0 0-.59.59v3.86a6.07 6.07 0 1 0 0 10.49.59.59 0 0 0 .59.59h1.84a.6.6 0 0 0 .59-.59v-5.24zm-6.07 3a3 3 0 1 1 3-3 3 3 0 0 1-3 3.02zm19.86-3v-5.4a.59.59 0 0 0-.59-.59h-1.84a.58.58 0 0 0-.59.59v.16a6.07 6.07 0 1 0 0 10.49.59.59 0 0 0 .59.59h1.84a.6.6 0 0 0 .59-.59v-5.24zm-6.07 3a3 3 0 1 1 3-3 3 3 0 0 1-3 3.02zm24.81-9.06a6.07 6.07 0 1 0 6.06 6.06 6.06 6.06 0 0 0-6.06-6.06zm0 9.08a3 3 0 1 1 3-3 3 3 0 0 1-3 3zM33.18 11.41L26.63 5a9.84 9.84 0 0 0-13.87.17l-6.39 6.56a9.84 9.84 0 0 0 .16 13.87l6.55 6.4A9.84 9.84 0 0 0 27 31.83l6.4-6.55a9.84 9.84 0 0 0-.22-13.87zM21.44 25.29l-.35.83a.81.81 0 0 1-.8.49H18a.81.81 0 0 1-.68-.49l-.32-.83-.55-1.29-4.65-11.23a.81.81 0 0 1 .43-1l3.24-1.34a.8.8 0 0 1 1 .43l2.7 6.5 2.7-6.5a.8.8 0 0 1 1-.43l3.24 1.34a.81.81 0 0 1 .43 1L22 24zm5.18.93a2.48 2.48 0 1 1 2.48-2.48 2.49 2.49 0 0 1-2.48 2.48z"/>
</svg>